<mxfile host="65bd71144e">
    <diagram id="JzcHSTK59oUhmqPwwlrD" name="Page-1">
        <mxGraphModel dx="654" dy="257" grid="1" gridSize="10" guides="1" tooltips="1" connect="1" arrows="1" fold="1" page="1" pageScale="1" pageWidth="850" pageHeight="1100" math="0" shadow="0">
            <root>
                <mxCell id="0"/>
                <mxCell id="1" parent="0"/>
                <mxCell id="5" value="dev/test" style="edgeStyle=entityRelationEdgeStyle;html=1;entryX=0;entryY=0.5;entryDx=0;entryDy=0;entryPerimeter=0;" edge="1" parent="1" source="2" target="3">
                    <mxGeometry relative="1" as="geometry"/>
                </mxCell>
                <mxCell id="6" value="prod" style="edgeStyle=entityRelationEdgeStyle;html=1;" edge="1" parent="1" source="2" target="4">
                    <mxGeometry relative="1" as="geometry"/>
                </mxCell>
                <mxCell id="2" value="API com diferentes configurações" style="rounded=1;whiteSpace=wrap;html=1;arcSize=9;" vertex="1" parent="1">
                    <mxGeometry x="115" y="40" width="310" height="160" as="geometry"/>
                </mxCell>
                <mxCell id="3" value="H2" style="shape=cylinder3;whiteSpace=wrap;html=1;boundedLbl=1;backgroundOutline=1;size=15;" vertex="1" parent="1">
                    <mxGeometry x="530" y="150" width="80" height="80" as="geometry"/>
                </mxCell>
                <mxCell id="4" value="MySQL" style="shape=cylinder3;whiteSpace=wrap;html=1;boundedLbl=1;backgroundOutline=1;size=15;" vertex="1" parent="1">
                    <mxGeometry x="530" y="10" width="80" height="80" as="geometry"/>
                </mxCell>
                <mxCell id="7" value="application-dev.properties" style="shape=note;whiteSpace=wrap;html=1;backgroundOutline=1;darkOpacity=0.05;size=17;" vertex="1" parent="1">
                    <mxGeometry x="80" y="220" width="100" height="70" as="geometry"/>
                </mxCell>
                <mxCell id="8" value="application-prod.properties" style="shape=note;whiteSpace=wrap;html=1;backgroundOutline=1;darkOpacity=0.05;size=17;" vertex="1" parent="1">
                    <mxGeometry x="325" y="220" width="100" height="70" as="geometry"/>
                </mxCell>
                <mxCell id="10" style="edgeStyle=entityRelationEdgeStyle;html=1;exitX=0.5;exitY=1;exitDx=0;exitDy=0;exitPerimeter=0;entryX=0;entryY=0.5;entryDx=0;entryDy=0;entryPerimeter=0;" edge="1" parent="1" source="9" target="8">
                    <mxGeometry relative="1" as="geometry">
                        <mxPoint x="320" y="210" as="targetPoint"/>
                    </mxGeometry>
                </mxCell>
                <mxCell id="12" style="edgeStyle=entityRelationEdgeStyle;html=1;entryX=0;entryY=0;entryDx=100;entryDy=43.5;entryPerimeter=0;exitX=0.5;exitY=1;exitDx=0;exitDy=0;exitPerimeter=0;" edge="1" parent="1" source="9" target="7">
                    <mxGeometry relative="1" as="geometry"/>
                </mxCell>
                <mxCell id="9" value="spring.profiles.active = xxx" style="shape=note;whiteSpace=wrap;html=1;backgroundOutline=1;darkOpacity=0.05;size=18;" vertex="1" parent="1">
                    <mxGeometry x="180" y="130" width="160" height="60" as="geometry"/>
                </mxCell>
            </root>
        </mxGraphModel>
    </diagram>
</mxfile>